<?xml version="1.0" encoding="UTF-8"?>
<svg version="1.1" xmlns="http://www.w3.org/2000/svg" width="1024" height="1024">
<path d="M0 0 C337.92 0 675.84 0 1024 0 C1024 337.92 1024 675.84 1024 1024 C686.08 1024 348.16 1024 0 1024 C0 686.08 0 348.16 0 0 Z " fill="#000000" transform="translate(0,0)"/>
<path d="M0 0 C0.92941406 0.42410156 1.85882813 0.84820312 2.81640625 1.28515625 C21.47439744 10.60117689 34.08044844 28.28633848 40.64453125 47.671875 C41.10412387 49.11212703 41.55597218 50.55487351 42 52 C42.31976807 53.03350586 42.31976807 53.03350586 42.64599609 54.08789062 C50.81827902 82.16269604 48.31292868 116.63730634 36 143 C35.56042969 143.97195313 35.12085938 144.94390625 34.66796875 145.9453125 C27.55736825 160.33044665 15.0401049 171.53274651 0 177 C-14.90328184 181.17464934 -28.80281417 179.24824836 -42.5625 172.4375 C-63.54159677 160.25313376 -75.00089655 138.52804563 -81.03515625 115.78515625 C-81.35355469 114.53605469 -81.67195312 113.28695312 -82 112 C-82.24621094 111.11183594 -82.49242187 110.22367188 -82.74609375 109.30859375 C-84.69417446 101.36848546 -84.1694759 93.11601256 -84 85 C-83.01644531 85.3609375 -82.03289062 85.721875 -81.01953125 86.09375 C-65.9730268 91.26316894 -49.94068985 92.83063059 -34.96484375 86.5625 C-28.8767207 83.354003 -23.98158872 79.63339333 -20 74 C-20.49886719 74.38671875 -20.99773437 74.7734375 -21.51171875 75.171875 C-34.87378363 84.86357018 -49.97532505 85.67061083 -66 84 C-71.98036367 82.83174291 -77.5516415 80.72417925 -83 78 C-84.3520497 56.74277415 -77.08668864 32.31616741 -63.04248047 16.17651367 C-46.45646849 -1.97782772 -23.58179221 -11.11564655 0 0 Z " fill="#010101" transform="translate(289,467)"/>
<path d="M0 0 C14.39700425 12.27183141 24.35134962 27.70784947 30.25 45.625 C30.86875 47.47351563 30.86875 47.47351563 31.5 49.359375 C36.84547779 67.20452979 36.21880523 88.7748016 31.25 106.625 C31.05132324 107.34300781 30.85264648 108.06101562 30.64794922 108.80078125 C26.17728738 124.52679473 19.22985043 137.360487 8.25 149.625 C7.69957031 150.25792969 7.14914062 150.89085937 6.58203125 151.54296875 C-1.86483796 160.65724491 -13.24655637 167.23870795 -24.75 171.625 C-25.81541016 172.03758057 -25.81541016 172.03758057 -26.90234375 172.45849609 C-46.95560976 179.95310837 -70.47529848 180.92116501 -90.75 173.625 C-91.36939453 173.41601074 -91.98878906 173.20702148 -92.62695312 172.99169922 C-115.92423373 165.0817629 -135.19545971 148.34167298 -146.75 126.625 C-153.74759559 111.87025457 -158.00725164 95.5616184 -157.8125 79.1875 C-157.80798828 78.45595703 -157.80347656 77.72441406 -157.79882812 76.97070312 C-157.78718148 75.18876581 -157.76925191 73.40687137 -157.75 71.625 C-159.6371875 71.068125 -159.6371875 71.068125 -161.5625 70.5 C-175.34944965 65.81070835 -185.12486439 57.74852422 -192.4375 45.1875 C-192.78901123 44.58421875 -193.14052246 43.9809375 -193.50268555 43.359375 C-194.44921875 41.62890625 -194.44921875 41.62890625 -195.75 38.625 C-195.42 37.635 -195.09 36.645 -194.75 35.625 C-193.89728516 36.43904297 -193.89728516 36.43904297 -193.02734375 37.26953125 C-192.25519531 37.98496094 -191.48304688 38.70039062 -190.6875 39.4375 C-189.93339844 40.14519531 -189.17929688 40.85289062 -188.40234375 41.58203125 C-185.28474784 43.98336065 -182.40834732 45.20554333 -178.75 46.625 C-179.46285156 45.75359375 -180.17570312 44.8821875 -180.91015625 43.984375 C-189.1145596 33.83973143 -195.7864643 23.90914221 -200.25 11.5625 C-200.5178833 10.82346436 -200.7857666 10.08442871 -201.06176758 9.32299805 C-202.87669451 4.00508353 -202.87669451 4.00508353 -201.75 0.625 C-201.20472656 1.72457031 -200.65945312 2.82414062 -200.09765625 3.95703125 C-195.44751871 13.14284781 -190.61369566 20.90826377 -183.75 28.625 C-183.13769531 29.43710937 -182.52539062 30.24921875 -181.89453125 31.0859375 C-179.29170873 34.16760351 -176.42844294 36.53607382 -173.25 39 C-172.64140137 39.47606689 -172.03280273 39.95213379 -171.40576172 40.44262695 C-165.81722418 44.73007177 -159.9597793 48.2926459 -153.75 51.625 C-153.688125 50.573125 -153.62625 49.52125 -153.5625 48.4375 C-151.16331326 29.57722644 -137.69913293 10.79319166 -123.4609375 -1.2890625 C-86.09190647 -30.04275496 -36.81350642 -28.92126092 0 0 Z M-98.75 -0.375 C-99.43449219 0.23085938 -100.11898437 0.83671875 -100.82421875 1.4609375 C-114.74235083 14.45119411 -121.15844757 32.43552477 -124.75 50.625 C-124.94722656 51.47191406 -125.14445312 52.31882812 -125.34765625 53.19140625 C-125.86162616 56.30017571 -125.84430657 59.28864973 -125.8125 62.4375 C-125.80347656 63.59894531 -125.79445313 64.76039063 -125.78515625 65.95703125 C-125.77355469 66.83746094 -125.76195312 67.71789062 -125.75 68.625 C-123.66780951 69.44042431 -121.58420239 70.25223189 -119.5 71.0625 C-118.33984375 71.51496094 -117.1796875 71.96742188 -115.984375 72.43359375 C-103.64308857 76.97959902 -86.68640311 76.49322395 -74.3984375 71.9140625 C-70.21825792 69.87946182 -66.42182864 67.47137879 -62.75 64.625 C-67.8660736 72.29911041 -76.37845074 77.38212554 -85.1015625 79.9609375 C-99.61811477 82.60313652 -113.03371368 80.65849957 -126.75 75.625 C-127.63748074 102.47950986 -120.00091749 129.33383767 -101.75 149.625 C-101.19828125 150.25792969 -100.6465625 150.89085937 -100.078125 151.54296875 C-91.05653064 161.27340267 -77.21367738 168.88571845 -63.875 169.828125 C-47.39550449 170.07531743 -33.06806184 165.59095716 -21.05859375 154.0234375 C-2.07250192 134.29846223 3.90807049 107.59168879 3.6875 80.875 C3.68445862 80.08951782 3.68141724 79.30403564 3.67828369 78.49475098 C3.60800187 66.19199702 2.89359609 54.45698212 -0.75 42.625 C-0.96430664 41.91553223 -1.17861328 41.20606445 -1.39941406 40.47509766 C-5.85701746 26.23607197 -13.2011263 14.22853108 -23.75 3.625 C-24.42417969 2.91601562 -25.09835937 2.20703125 -25.79296875 1.4765625 C-36.8101974 -9.3132937 -51.78621779 -13.85550563 -66.90356445 -13.87915039 C-79.29141367 -13.58896014 -89.65118152 -8.80980214 -98.75 -0.375 Z " fill="#FAFAF9" transform="translate(331.75,476.375)"/>
<path d="M0 0 C10.89 0 21.78 0 33 0 C31.35 2.64 29.7 5.28 28 8 C27.22969711 11.08121155 26.87350734 13.09637816 26.86628723 16.15869141 C26.86202225 16.9798494 26.85775726 17.80100739 26.85336304 18.64704895 C26.85404282 19.98578316 26.85404282 19.98578316 26.85473633 21.3515625 C26.85137772 22.29847458 26.8480191 23.24538666 26.84455872 24.22099304 C26.83505108 27.35567535 26.83310524 30.49030416 26.83203125 33.625 C26.82881692 35.8101402 26.82545271 37.99528018 26.82194519 40.18041992 C26.81595324 44.76693215 26.8141052 49.35342554 26.81469727 53.93994141 C26.81479852 59.79257156 26.8011846 65.6450794 26.78392506 71.49768066 C26.77275402 76.01552881 26.77077968 80.53334796 26.77130699 85.0512085 C26.77013309 87.20717793 26.76574471 89.36314826 26.75797462 91.519104 C26.04414337 115.9607605 26.04414337 115.9607605 36.92578125 137.015625 C45.16983358 143.61086686 54.81587116 143.87756855 65 143 C71.76332848 141.25249194 76.74020375 137.81464148 80.33984375 131.73828125 C84.95525039 123.00245361 86.30007563 115.23363229 86.2746582 105.47241211 C86.2823246 103.93670815 86.2823246 103.93670815 86.29014587 102.36997986 C86.30397933 99.0057074 86.30309021 95.64164116 86.30078125 92.27734375 C86.30467074 89.92900009 86.30900593 87.58065712 86.31376648 85.23231506 C86.32121461 80.3191601 86.32094695 75.40607703 86.31567383 70.49291992 C86.30987185 64.20265708 86.32683487 57.91268798 86.3500185 51.62247372 C86.36475925 46.77627345 86.36562722 41.93014396 86.36250877 37.08392525 C86.3630215 34.76472961 86.36825018 32.44552996 86.37832069 30.12635612 C86.39067823 26.8834413 86.3838978 23.64109924 86.37231445 20.39819336 C86.37995819 19.44475037 86.38760193 18.49130737 86.39547729 17.50897217 C86.33791862 10.20604453 85.34481068 5.34481068 80 0 C90.89 0 101.78 0 113 0 C111.68 1.65 110.36 3.3 109 5 C106.69079843 10.10385299 106.7125725 14.90025617 106.72875977 20.39501953 C106.72091965 21.78656502 106.72091965 21.78656502 106.71292114 23.20622253 C106.70270547 25.21466513 106.69690499 27.22313401 106.69503975 29.23160172 C106.69136387 32.41957062 106.67460132 35.60723183 106.65428162 38.7951355 C106.59900207 47.85718029 106.56827525 56.91927078 106.54370117 65.98144531 C106.52774478 71.53222346 106.49743768 77.0827845 106.45893669 82.63344955 C106.44735355 84.73915155 106.44135693 86.84489252 106.44125557 88.95062637 C106.44019092 105.18864143 106.03662696 121.27598842 94.6875 134.125 C86.35415411 141.89016321 74.33402714 147.26256683 63 148 C61.36998047 148.11988281 61.36998047 148.11988281 59.70703125 148.2421875 C45.12127862 148.79259326 31.7218965 144.16523223 20.1875 135.25 C10.75525241 126.44957761 7.30999417 113.45284998 6.63522339 100.91329956 C6.48039204 96.19007014 6.46414801 91.46888915 6.48357964 86.74346733 C6.49639265 83.61050742 6.48475835 80.47840495 6.46754456 77.34547424 C6.44106561 71.83274088 6.43524121 66.32022416 6.43664551 60.80743408 C6.43889015 51.95503203 6.42468558 43.10289493 6.38105965 34.250597 C6.37126027 31.17338489 6.37991161 28.09659693 6.38975525 25.01939392 C6.38361121 23.13068364 6.37669954 21.24197564 6.36889648 19.35327148 C6.38047539 18.08222061 6.38047539 18.08222061 6.39228821 16.78549194 C6.3329621 9.81246356 5.08914791 5.08914791 0 0 Z " fill="#F9F9F9" transform="translate(484,487)"/>
<path d="M0 0 C8.25 0 16.5 0 25 0 C27.48315715 6.20789289 29.80831901 12.20649554 31.75 18.5625 C32.26239558 20.21243389 32.77545279 21.8621624 33.2890625 23.51171875 C33.56137695 24.38876465 33.83369141 25.26581055 34.11425781 26.16943359 C36.0750038 32.43538976 38.09774955 38.68180167 40.10839844 44.93188477 C41.72275675 49.96302834 43.31434034 54.99981543 44.86328125 60.05151367 C47.89647683 69.92362357 50.96761606 79.78373649 54.05837822 89.63796902 C55.06850487 92.85904969 56.07582616 96.08095031 57.07666016 99.30493164 C63.06955137 123.03944873 63.06955137 123.03944873 76 143 C76.99 143.99 77.98 144.98 79 146 C67.45 146 55.9 146 44 146 C44.66 144.68 45.32 143.36 46 142 C48.00283428 128.76021127 41.68981547 115.82694567 37.26171875 103.66015625 C35.34563688 98.10173917 33.73077036 92.46360257 32.11328125 86.8125 C31.15142022 83.51854785 30.08514042 80.25542127 29 77 C15.47 77 1.94 77 -12 77 C-14.5912601 85.42159533 -17.10375116 93.82223991 -19.4375 102.3125 C-21.2582939 108.91995765 -23.11370397 115.49217057 -25.27368164 121.99731445 C-28.39822235 131.42379751 -29.6061922 136.7876156 -25 146 C-31.6 146 -38.2 146 -45 146 C-43.35 144.35 -41.7 142.7 -40 141 C-33.85931807 133.06847935 -31.4222195 123.65341699 -28.6875 114.1875 C-28.21350779 112.58622148 -27.73798133 110.98539637 -27.26098633 109.38500977 C-26.29635512 106.14556387 -25.33752494 102.90449146 -24.3828125 99.66210938 C-22.38502853 92.89957582 -20.28822992 86.16867713 -18.1875 79.4375 C-17.81939209 78.2520459 -17.45128418 77.0665918 -17.07202148 75.84521484 C-15.23761148 69.9419694 -13.38114986 64.04646606 -11.49926758 58.15820312 C-9.12353813 50.72059851 -6.93006763 43.26140903 -4.90454102 35.72070312 C-3.18347113 29.41266532 -1.12265899 23.24055442 1.12109375 17.09936523 C2.6996779 12.609228 3.53101782 8.82584328 3 4 C2.01 2.68 1.02 1.36 0 0 Z " fill="#F6F6F6" transform="translate(799,487)"/>
<path d="M0 0 C34.65 0 69.3 0 105 0 C105.72419109 5.06933762 106.11057071 9.39007559 106.0625 14.4375 C106.05347656 15.67371094 106.04445313 16.90992188 106.03515625 18.18359375 C106.02355469 19.11300781 106.01195312 20.04242188 106 21 C103.95994836 19.08427284 102.86484295 17.73556228 101.5625 15.1875 C98.10683198 9.78801872 90.62354361 7.01798549 84.6640625 5.34375 C80.87500181 4.85483894 77.12931056 4.81573733 73.3125 4.8125 C72.54099609 4.80025391 71.76949219 4.78800781 70.97460938 4.77539062 C68.98167293 4.77016896 66.98916662 4.8773659 65 5 C62.43568591 7.56431409 62.74528903 8.52172409 62.73257446 12.08401489 C62.71977951 13.69893578 62.71977951 13.69893578 62.70672607 15.34648132 C62.70808563 17.12621086 62.70808563 17.12621086 62.70947266 18.94189453 C62.70275543 20.18754684 62.69603821 21.43319916 62.68911743 22.71659851 C62.67333692 26.14053602 62.66675998 29.56423099 62.66548586 32.98818827 C62.66406522 35.12871117 62.65979712 37.26920861 62.65449142 39.40972519 C62.63597059 46.8818905 62.62782263 54.35398437 62.62939453 61.82617188 C62.63059378 68.7823684 62.60953972 75.73825355 62.5779072 82.69437134 C62.55170257 88.67072285 62.54102911 94.64697302 62.54230535 100.6233815 C62.54281413 104.19070417 62.53717933 107.75775074 62.51594925 111.32501602 C62.49287918 115.31071197 62.50211345 119.29598655 62.51416016 123.28173828 C62.49730164 125.04324974 62.49730164 125.04324974 62.48010254 126.84034729 C62.53290151 133.72288063 63.402542 138.10475883 67 144 C67.33 144.66 67.66 145.32 68 146 C57.44 146 46.88 146 36 146 C37.32 144.35 38.64 142.7 40 141 C42.67415458 134.37139028 42.28461247 126.87851124 42.25878906 119.85839844 C42.2622937 118.67518005 42.26579834 117.49196167 42.26940918 116.27288818 C42.27816968 112.38498975 42.27239885 108.49727509 42.265625 104.609375 C42.26607097 101.89894464 42.26891162 99.1885175 42.27142334 96.47808838 C42.275051 90.8092654 42.27029343 85.14049471 42.26074219 79.47167969 C42.24983889 72.92491983 42.25340158 66.37828437 42.264395 59.83152747 C42.27347709 54.19648417 42.27474928 48.56147825 42.26951766 42.92642999 C42.26640573 39.56675441 42.26596764 36.2071373 42.27259064 32.84746552 C42.2776629 29.10623211 42.26993641 25.36523892 42.25878906 21.62402344 C42.26283752 20.51534912 42.26688599 19.4066748 42.27105713 18.2644043 C42.26541748 17.24401062 42.25977783 16.22361694 42.25396729 15.17230225 C42.25283621 13.84724482 42.25283621 13.84724482 42.25168228 12.49541855 C41.97024988 9.70502887 41.15073342 7.54523768 40 5 C21.83361238 3.82580062 21.83361238 3.82580062 6.05078125 11.75 C4.54841601 13.43788734 3.26652394 15.13156369 2 17 C1.00339593 18.33587354 0.00418645 19.66981679 -1 21 C-1.02806159 19.56262294 -1.04684998 18.12506577 -1.0625 16.6875 C-1.07410156 15.88699219 -1.08570313 15.08648437 -1.09765625 14.26171875 C-0.95496673 9.49588866 -0.43167133 4.74838463 0 0 Z " fill="#F8F8F8" transform="translate(371,487)"/>
<path d="M0 0 C10.56 0 21.12 0 32 0 C30.35 2.31 28.7 4.62 27 7 C25.30843951 12.67950408 25.84474098 19.00402988 25.83886719 24.89282227 C25.83390228 26.08535614 25.82893738 27.27789001 25.82382202 28.50656128 C25.81175399 31.76470808 25.80426689 35.0228191 25.79981136 38.28098416 C25.79687225 40.31831144 25.79276607 42.3556332 25.78830719 44.39295769 C25.7746545 50.77294816 25.76497487 57.1529259 25.7611053 63.53292996 C25.7566187 70.88845636 25.73903375 78.24379748 25.7101047 85.59926754 C25.68848773 91.2936909 25.67840115 96.9880621 25.67706418 102.68252605 C25.6760169 106.0803043 25.67012463 109.47790784 25.65224457 112.87564278 C25.6352303 116.66276337 25.6370528 120.44942919 25.64355469 124.23657227 C25.6343399 125.35931046 25.62512512 126.48204865 25.6156311 127.6388092 C25.62398483 129.18852417 25.62398483 129.18852417 25.63250732 130.76954651 C25.63030748 132.11151014 25.63030748 132.11151014 25.6280632 133.48058414 C26.09319305 136.63126864 27.04565666 138.4935515 29 141 C32.15285318 141.47894651 34.75964109 141.63099257 37.91015625 141.55859375 C39.23327065 141.55509666 39.23327065 141.55509666 40.58311462 141.55152893 C42.45353839 141.54177989 44.32393209 141.51996611 46.1940918 141.48706055 C49.02763666 141.43810237 51.85943179 141.42560505 54.69335938 141.41992188 C56.51564309 141.40581616 58.33791196 141.38960475 60.16015625 141.37109375 C61.41385765 141.3630497 61.41385765 141.3630497 62.69288635 141.35484314 C73.31181188 141.14535849 86.20512361 139.34835338 94.28125 131.89453125 C95.49432842 130.49004497 96.67030826 129.05197867 97.79296875 127.57421875 C98.39044922 126.79498047 98.39044922 126.79498047 99 126 C99.33 126 99.66 126 100 126 C100.05583292 127.4578597 100.09358421 128.91640983 100.125 130.375 C100.14820313 131.18710937 100.17140625 131.99921875 100.1953125 132.8359375 C99.92122805 137.27610564 98.87244606 141.63776969 98 146 C65.66 146 33.32 146 0 146 C1.65 142.7 3.3 139.4 5 136 C5.71260443 132.90974698 5.71260443 132.90974698 5.62145996 130.06111145 C5.63827316 128.46539055 5.63827316 128.46539055 5.65542603 126.83743286 C5.63553116 125.14056839 5.63553116 125.14056839 5.61523438 123.40942383 C5.62078339 122.19025772 5.6263324 120.97109161 5.63204956 119.71498108 C5.64177558 116.40057416 5.62935639 113.0877525 5.60576439 109.77351594 C5.58551615 106.29080309 5.59154192 102.80812044 5.59387207 99.32536316 C5.59381867 93.48247559 5.57415985 87.63991326 5.54199219 81.79711914 C5.50505482 75.05547167 5.49632552 68.31424888 5.5032897 61.5725134 C5.50960681 55.06484712 5.49882147 48.55732541 5.47932434 42.04968834 C5.47117977 39.28948585 5.4684353 36.52935754 5.47001648 33.76914406 C5.47106313 29.91340365 5.44682307 26.05804388 5.41992188 22.20239258 C5.42285248 21.0650769 5.42578308 19.92776123 5.42880249 18.75598145 C5.34672292 11.12385585 4.27265377 6.40898066 0 0 Z " fill="#F9F9F9" transform="translate(606,487)"/>
<path d="M0 0 C10.89 0 21.78 0 33 0 C31.68 1.65 30.36 3.3 29 5 C26.2971895 10.65604787 26.71156477 16.58502264 26.7253418 22.72167969 C26.72023087 23.89642853 26.71511993 25.07117737 26.70985413 26.28152466 C26.6959644 30.16169341 26.69691479 34.04168435 26.69921875 37.921875 C26.69690822 39.94120147 26.69340426 41.96052359 26.689812 43.97984815 C26.67873017 50.32903141 26.67827112 56.67815551 26.68432617 63.02734375 C26.69035754 69.55637418 26.67807335 76.08518864 26.6567561 82.61418223 C26.63908058 88.23650754 26.63314831 93.8587645 26.63639385 99.48111653 C26.63819834 102.83156724 26.63432294 106.18174181 26.62167931 109.53218842 C26.60929003 113.27520678 26.61612271 117.01773124 26.62768555 120.76074219 C26.62004181 121.85615326 26.61239807 122.95156433 26.60452271 124.08016968 C26.65951747 132.16830854 27.06204065 140.06204065 33 146 C22.44 146 11.88 146 1 146 C2.32 143.36 3.64 140.72 5 138 C5.83512251 134.65950995 6.12909977 132.31968536 6.14044189 128.94795227 C6.14615204 127.92893326 6.15186218 126.90991425 6.15774536 125.86001587 C6.15886322 124.74774628 6.15998108 123.63547668 6.16113281 122.48950195 C6.16609772 121.31343887 6.17106262 120.13737579 6.17617798 118.92567444 C6.18827476 115.70226343 6.19574204 112.47888866 6.20018864 109.25545907 C6.20312461 107.23854753 6.20723047 105.2216416 6.21169281 103.20473289 C6.22536265 96.88559602 6.23503097 90.56647206 6.2388947 84.24732143 C6.24336986 76.96935445 6.26089452 69.69157581 6.2898953 62.41366607 C6.31156773 56.77781874 6.32160199 51.14202417 6.32293582 45.50613564 C6.32398018 42.14508735 6.32980824 38.78421621 6.34775543 35.42321205 C6.36485683 31.66782093 6.36292515 27.91288523 6.35644531 24.1574707 C6.3656601 23.05532227 6.37487488 21.95317383 6.3843689 20.81762695 C6.34133805 12.83509356 5.83559044 5.83559044 0 0 Z " fill="#FCFCFC" transform="translate(713,487)"/>
<path d="M0 0 C2.42153729 2.15415398 3.50786385 3.82483904 4.4296875 6.921875 C4.66510254 7.69257324 4.90051758 8.46327148 5.14306641 9.25732422 C5.38460449 10.07990723 5.62614258 10.90249023 5.875 11.75 C6.3999762 13.47688676 6.92603084 15.20344602 7.453125 16.9296875 C7.84274414 18.21697754 7.84274414 18.21697754 8.24023438 19.53027344 C9.30776856 23.00044561 10.46179698 26.4356528 11.625 29.875 C15.08166024 40.17850649 18.13930068 50.51076917 21 61 C8.13 61 -4.74 61 -18 61 C-14.62553495 48.62696148 -14.62553495 48.62696148 -12.94921875 43.06640625 C-12.58304443 41.84904785 -12.21687012 40.63168945 -11.83959961 39.37744141 C-11.45940674 38.11851074 -11.07921387 36.85958008 -10.6875 35.5625 C-10.28965344 34.2414163 -9.8919498 32.92028955 -9.49438477 31.59912109 C-8.7032777 28.97067226 -7.91149999 26.34242706 -7.11914062 23.71435547 C-5.55386859 18.51931865 -3.99537793 13.32225788 -2.4375 8.125 C-1.95707367 6.52342477 -1.47660995 4.92186076 -0.99609375 3.3203125 C-0.66738281 2.22460938 -0.33867188 1.12890625 0 0 Z " fill="#090909" transform="translate(806,498)"/>
<path d="M0 0 C0.66 0 1.32 0 2 0 C2.51046875 1.17755859 2.51046875 1.17755859 3.03125 2.37890625 C8.05320028 13.26425062 13.78827324 18.82155554 25 23 C25 23.66 25 24.32 25 25 C24.21496094 25.3403125 23.42992187 25.680625 22.62109375 26.03125 C11.73574938 31.05320028 6.17844446 36.78827324 2 48 C1.34 48 0.68 48 0 48 C-0.3403125 47.21496094 -0.680625 46.42992187 -1.03125 45.62109375 C-6.05320028 34.73574938 -11.78827324 29.17844446 -23 25 C-23 24.34 -23 23.68 -23 23 C-22.21496094 22.6596875 -21.42992187 22.319375 -20.62109375 21.96875 C-9.73574938 16.94679972 -4.17844446 11.21172676 0 0 Z " fill="#7D7D7D" transform="translate(967,944)"/>
<path d="M0 0 C0 3 0 3 -1.390625 4.75390625 C-2.00421875 5.35074219 -2.6178125 5.94757812 -3.25 6.5625 C-3.85328125 7.16191406 -4.4565625 7.76132812 -5.078125 8.37890625 C-6.97121638 9.97572113 -8.74536429 10.99738545 -11 12 C-10.69399898 8.78698932 -10.45099973 7.39202285 -7.96875 5.234375 C-7.1540625 4.74453125 -6.339375 4.2546875 -5.5 3.75 C-4.27796875 2.99976563 -4.27796875 2.99976563 -3.03125 2.234375 C-2.3609375 1.82703125 -1.690625 1.4196875 -1 1 C-0.67 0.67 -0.34 0.34 0 0 Z " fill="#DBDBDB" transform="translate(270,539)"/>
<path d="M0 0 C1.98 1.65 3.96 3.3 6 5 C4.02 5.99 4.02 5.99 2 7 C0.5393715 4.35261084 0 3.10551666 0 0 Z " fill="#CFCFCE" transform="translate(136,512)"/>
<path d="M0 0 C2.40785992 3.2104799 3.68197635 5.35008834 5 9 C4.01 9.33 3.02 9.66 2 10 C1.34 6.7 0.68 3.4 0 0 Z " fill="#BEBDBE" transform="translate(129,477)"/>
</svg>
