<svg xmlns="http://www.w3.org/2000/svg" xmlns:xlink="http://www.w3.org/1999/xlink" preserveAspectRatio="xMidYMid meet" version="1.0" viewBox="0.0 -0.7 55.9 54.3" zoomAndPan="magnify" style="fill: rgb(8, 110, 119);" original_string_length="3293" width="47.52658940519643px" height="45.798349790462005px"><g data-name="28" id="__id14_slzavivn18"><path d="M1.778,32.247l52.671.1c-.045,2.922-.6,10.987-6.75,15.594A12.133,12.133,0,0,1,43.111,50a.691.691,0,0,1,.058.227v2.46a.99.99,0,0,1-1.078.859h-.852a.99.99,0,0,1-1.078-.859v-2.19a113.965,113.965,0,0,1-11.689.334,119.97,119.97,0,0,1-12.406-.385v2.241a.99.99,0,0,1-1.078.859h-.851a.991.991,0,0,1-1.079-.859v-2.46a.687.687,0,0,1,.074-.288,12.538,12.538,0,0,1-4.979-2.32C2.378,43.058,1.8,35.455,1.778,32.247Zm51.849-6.363H52.469q-.017-5.109.016-10.219a61.136,61.136,0,0,0-.323-9.578,6.88,6.88,0,0,0-2.7-4.912C46.645-.723,42.872-.35,40.971,2.5c-2.277-.253-4.709.963-4.9,2.1-.182,1.058,1.532,2.184,3.428,3.429,1.919,1.26,3.819,2.508,4.8,1.861s1.124-3.263.025-5.195a1.78,1.78,0,0,1,2.373-.485,4.34,4.34,0,0,1,.746.42c-.413-.278.043.161.182.257a1.944,1.944,0,0,0,.257.459,7.425,7.425,0,0,1,.252.839,12.746,12.746,0,0,1,.3,2.572c.291,5.691.061,11.424.043,17.128H2.254A2.1,2.1,0,0,0,0,27.766a2.1,2.1,0,0,0,2.254,1.882H53.627a2.1,2.1,0,0,0,2.254-1.882A2.1,2.1,0,0,0,53.627,25.884ZM39.957,15.66a1.134,1.134,0,0,0,.51.269l.4.053a1.491,1.491,0,0,0,.757-.205,1.562,1.562,0,0,0,.689-.9l.414-1.512a1.148,1.148,0,0,0,.027-.6,1.338,1.338,0,0,0-.565-.978,1.124,1.124,0,0,0-.51-.269l-.4-.054a1.5,1.5,0,0,0-.757.205,1.564,1.564,0,0,0-.689.9l-.414,1.512a1.137,1.137,0,0,0-.026.6,1.111,1.111,0,0,0,.178.557A1.134,1.134,0,0,0,39.957,15.66Zm-1.83,3.148-.414,1.512a1.137,1.137,0,0,0-.026.6,1.111,1.111,0,0,0,.178.557,1.68,1.68,0,0,0,.9.69l.4.053a1.5,1.5,0,0,0,.757-.2,1.564,1.564,0,0,0,.689-.9l.414-1.512a1.147,1.147,0,0,0,.027-.6,1.343,1.343,0,0,0-.565-.978,1.124,1.124,0,0,0-.51-.269l-.4-.053a1.493,1.493,0,0,0-.757.2A1.564,1.564,0,0,0,38.127,18.808ZM38.113,9.57l-.3-.235a1.5,1.5,0,0,0-.757-.205l-.4.054a1.492,1.492,0,0,0-.661.386l-1,1.208a1.123,1.123,0,0,0-.31.483,1.359,1.359,0,0,0,0,1.156,1.12,1.12,0,0,0,.31.482l.3.235a1.48,1.48,0,0,0,.757.2l.4-.053a1.49,1.49,0,0,0,.662-.386l1-1.208a1.123,1.123,0,0,0,.31-.483,1.357,1.357,0,0,0,0-1.155A1.123,1.123,0,0,0,38.113,9.57Zm-7.239,8.313.3.234a1.491,1.491,0,0,0,.757.2l.4-.053A1.511,1.511,0,0,0,33,17.883q.5-.6,1-1.208a1.123,1.123,0,0,0,.31-.483,1.359,1.359,0,0,0,0-1.156,1.123,1.123,0,0,0-.31-.483l-.3-.234a1.488,1.488,0,0,0-.757-.205l-.4.054a1.5,1.5,0,0,0-.662.385l-1,1.209a1.123,1.123,0,0,0-.31.482,1.359,1.359,0,0,0,0,1.156A1.133,1.133,0,0,0,30.874,17.883Zm.306-8.955.234.3a1.5,1.5,0,0,0,.662.385l.4.054a1.491,1.491,0,0,0,.757-.205l1.344-.806A1.128,1.128,0,0,0,35,8.273a1.122,1.122,0,0,0,.268-.51,1.127,1.127,0,0,0,.027-.6,1.108,1.108,0,0,0-.178-.557l-.234-.3a1.5,1.5,0,0,0-.662-.386l-.4-.054a1.5,1.5,0,0,0-.757.205l-1.344.807a1.125,1.125,0,0,0-.421.386,1.134,1.134,0,0,0-.269.51,1.137,1.137,0,0,0-.026.6A1.111,1.111,0,0,0,31.18,8.928Zm-5.545,3.326.235.3a1.5,1.5,0,0,0,.662.386l.4.053a1.493,1.493,0,0,0,.757-.2l1.344-.807a1.134,1.134,0,0,0,.421-.386,1.35,1.35,0,0,0,.3-1.108,1.121,1.121,0,0,0-.178-.558l-.235-.3a1.5,1.5,0,0,0-.662-.385l-.4-.054a1.491,1.491,0,0,0-.757.205l-1.345.806a1.139,1.139,0,0,0-.42.386,1.349,1.349,0,0,0-.3,1.109A1.124,1.124,0,0,0,25.635,12.254Z" style="fill: inherit;"/></g></svg>