<svg xmlns="http://www.w3.org/2000/svg" viewBox="0 0 64 64" width="64" height="64">
  <path fill="#008080" d="M48.5 36c-2.9 0-5.4 1.4-6.9 3.6l-3.7-3.7c.4-1.1.6-2.3.6-3.6 0-5.2-4-9.5-9.1-9.9L27 19l-2-3h-4l-2 3-3 1c-1.6.5-3 1.3-4 2.4V24h4l2-2h4l2 2h8l2-2h4l2 2h4v-2c0-3.5-2.5-6.5-5.8-7.6l1.3-2c1.2.6 2.5 1 3.9 1 4.4 0 8-3.6 8-8s-3.6-8-8-8-8 3.6-8 8c0 1.8.6 3.5 1.6 4.9l-1.3 2c-3.3 1.1-5.8 4.1-5.8 7.6v2h4l2-2h4l2 2h8l2-2h4l2 2h4v-2c1.3-1.6 2-3.6 2-5.8C56.5 4.6 52 0 46.5 0c-5.1 0-9.3 3.9-9.9 8.8l-3.7 5.6c-2.2-1.5-5.1-2.3-8.1-2.3-8.3 0-15 6.7-15 15 0 8.3 6.7 15 15 15 2.9 0 5.5-.8 7.8-2.2l4.1 6.1c-1.2 1.1-2 2.6-2 4.3 0 3.3 2.7 6 6 6 3.3 0 6-2.7 6-6 0-1.7-.8-3.2-2-4.3l4.1-6.1c2.2 1.3 4.8 2.2 7.8 2.2 8.3 0 15-6.7 15-15s-6.7-15-15-15zM24.8 36c0 6.6-5.4 12-12 12-6.6 0-12-5.4-12-12 0-6.6 5.4-12 12-12 6.6 0 12 5.4 12 12zm12 0c0 6.6-5.4 12-12 12-6.6 0-12-5.4-12-12 0-6.6 5.4-12 12-12 6.6 0 12 5.4 12 12zm24.8 0c0 6.6-5.4 12-12 12-6.6 0-12-5.4-12-12 0-6.6 5.4-12 12-12 6.6 0 12 5.4 12 12z"/>
</svg>